<svg id="visual" viewBox="0 0 675 900" width="675" height="900" xmlns="http://www.w3.org/2000/svg" xmlns:xlink="http://www.w3.org/1999/xlink" version="1.1"><rect x="0" y="0" width="675" height="900" fill="#f6b674"></rect><defs><linearGradient id="grad1_0" x1="0%" y1="0%" x2="100%" y2="100%"><stop offset="30%" stop-color="#f8f1de" stop-opacity="1"></stop><stop offset="70%" stop-color="#f8f1de" stop-opacity="1"></stop></linearGradient></defs><defs><linearGradient id="grad1_1" x1="0%" y1="0%" x2="100%" y2="100%"><stop offset="30%" stop-color="#f8f1de" stop-opacity="1"></stop><stop offset="70%" stop-color="#f6b674" stop-opacity="1"></stop></linearGradient></defs><defs><linearGradient id="grad2_0" x1="0%" y1="0%" x2="100%" y2="100%"><stop offset="30%" stop-color="#f8f1de" stop-opacity="1"></stop><stop offset="70%" stop-color="#f8f1de" stop-opacity="1"></stop></linearGradient></defs><defs><linearGradient id="grad2_1" x1="0%" y1="0%" x2="100%" y2="100%"><stop offset="30%" stop-color="#f6b674" stop-opacity="1"></stop><stop offset="70%" stop-color="#f8f1de" stop-opacity="1"></stop></linearGradient></defs><g transform="translate(675, 0)"><path d="M0 506.3C-37.4 431.6 -74.8 357 -142.4 343.7C-209.9 330.4 -307.7 378.5 -358 358C-408.2 337.4 -411 248.3 -427.8 177.2C-444.5 106.1 -475.4 53 -506.2 0L0 0Z" fill="#f4d6a6"></path><path d="M0 253.1C-18.7 215.8 -37.4 178.5 -71.2 171.8C-105 165.2 -153.9 189.3 -179 179C-204.1 168.7 -205.5 124.1 -213.9 88.6C-222.3 53 -237.7 26.5 -253.1 0L0 0Z" fill="#f8f1de"></path></g><g transform="translate(0, 900)"><path d="M0 -506.2C73.9 -509.1 147.7 -511.9 193.7 -467.7C239.7 -423.6 257.9 -332.5 270.8 -270.8C283.8 -209.1 291.5 -176.9 329.8 -136.6C368.2 -96.4 437.2 -48.2 506.3 0L0 0Z" fill="#f4d6a6"></path><path d="M0 -253.1C36.9 -254.5 73.9 -255.9 96.9 -233.9C119.9 -211.8 128.9 -166.3 135.4 -135.4C141.9 -104.6 145.7 -88.4 164.9 -68.3C184.1 -48.2 218.6 -24.1 253.1 0L0 0Z" fill="#f8f1de"></path></g></svg>