<svg id="visual" viewBox="0 0 900 600" width="900" height="600" xmlns="http://www.w3.org/2000/svg" xmlns:xlink="http://www.w3.org/1999/xlink" version="1.1"><rect x="0" y="0" width="900" height="600" fill="#f8f1de"></rect><defs><linearGradient id="grad1_0" x1="33.3%" y1="0%" x2="100%" y2="100%"><stop offset="20%" stop-color="#ff6432" stop-opacity="1"></stop><stop offset="80%" stop-color="#ff6432" stop-opacity="1"></stop></linearGradient></defs><defs><linearGradient id="grad1_1" x1="33.3%" y1="0%" x2="100%" y2="100%"><stop offset="20%" stop-color="#ff6432" stop-opacity="1"></stop><stop offset="80%" stop-color="#fa924c" stop-opacity="1"></stop></linearGradient></defs><defs><linearGradient id="grad1_2" x1="33.3%" y1="0%" x2="100%" y2="100%"><stop offset="20%" stop-color="#f6b674" stop-opacity="1"></stop><stop offset="80%" stop-color="#fa924c" stop-opacity="1"></stop></linearGradient></defs><defs><linearGradient id="grad1_3" x1="33.3%" y1="0%" x2="100%" y2="100%"><stop offset="20%" stop-color="#f6b674" stop-opacity="1"></stop><stop offset="80%" stop-color="#f4d6a6" stop-opacity="1"></stop></linearGradient></defs><defs><linearGradient id="grad1_4" x1="33.3%" y1="0%" x2="100%" y2="100%"><stop offset="20%" stop-color="#f8f1de" stop-opacity="1"></stop><stop offset="80%" stop-color="#f4d6a6" stop-opacity="1"></stop></linearGradient></defs><defs><linearGradient id="grad2_0" x1="0%" y1="0%" x2="66.7%" y2="100%"><stop offset="20%" stop-color="#ff6432" stop-opacity="1"></stop><stop offset="80%" stop-color="#ff6432" stop-opacity="1"></stop></linearGradient></defs><defs><linearGradient id="grad2_1" x1="0%" y1="0%" x2="66.7%" y2="100%"><stop offset="20%" stop-color="#fa924c" stop-opacity="1"></stop><stop offset="80%" stop-color="#ff6432" stop-opacity="1"></stop></linearGradient></defs><defs><linearGradient id="grad2_2" x1="0%" y1="0%" x2="66.7%" y2="100%"><stop offset="20%" stop-color="#fa924c" stop-opacity="1"></stop><stop offset="80%" stop-color="#f6b674" stop-opacity="1"></stop></linearGradient></defs><defs><linearGradient id="grad2_3" x1="0%" y1="0%" x2="66.7%" y2="100%"><stop offset="20%" stop-color="#f4d6a6" stop-opacity="1"></stop><stop offset="80%" stop-color="#f6b674" stop-opacity="1"></stop></linearGradient></defs><defs><linearGradient id="grad2_4" x1="0%" y1="0%" x2="66.7%" y2="100%"><stop offset="20%" stop-color="#f4d6a6" stop-opacity="1"></stop><stop offset="80%" stop-color="#f8f1de" stop-opacity="1"></stop></linearGradient></defs><g transform="translate(900, 0)"><path d="M0 459.7C-35.3 433.9 -70.6 408.1 -105.1 392.2C-139.6 376.2 -173.4 370.1 -208 360.3C-242.6 350.5 -278.1 337 -316.8 316.8C-355.4 296.6 -397.3 269.6 -398.1 229.9C-399 190.1 -358.8 137.5 -362.2 97.1C-365.7 56.6 -412.7 28.3 -459.7 0L0 0Z" fill="#f5e4c2"></path><path d="M0 367.8C-28.2 347.1 -56.4 326.5 -84.1 313.7C-111.7 301 -138.7 296.1 -166.4 288.2C-194.1 280.4 -222.5 269.6 -253.4 253.4C-284.4 237.3 -317.8 215.7 -318.5 183.9C-319.2 152.1 -287 110 -289.8 77.6C-292.5 45.3 -330.1 22.6 -367.8 0L0 0Z" fill="#f4c78c"></path><path d="M0 275.8C-21.2 260.4 -42.3 244.9 -63 235.3C-83.8 225.7 -104 222 -124.8 216.2C-145.6 210.3 -166.9 202.2 -190.1 190.1C-213.3 177.9 -238.4 161.8 -238.9 137.9C-239.4 114.1 -215.3 82.5 -217.3 58.2C-219.4 34 -247.6 17 -275.8 0L0 0Z" fill="#f8a55f"></path><path d="M0 183.9C-14.1 173.6 -28.2 163.3 -42 156.9C-55.8 150.5 -69.3 148 -83.2 144.1C-97.1 140.2 -111.2 134.8 -126.7 126.7C-142.2 118.6 -158.9 107.8 -159.2 91.9C-159.6 76 -143.5 55 -144.9 38.8C-146.3 22.6 -165.1 11.3 -183.9 0L0 0Z" fill="#fd7d3d"></path><path d="M0 91.9C-7.1 86.8 -14.1 81.6 -21 78.4C-27.9 75.2 -34.7 74 -41.6 72.1C-48.5 70.1 -55.6 67.4 -63.4 63.4C-71.1 59.3 -79.5 53.9 -79.6 46C-79.8 38 -71.8 27.5 -72.4 19.4C-73.1 11.3 -82.5 5.7 -91.9 0L0 0Z" fill="#ff6432"></path></g><g transform="translate(0, 600)"><path d="M0 -459.7C37.7 -444.1 75.3 -428.4 112.1 -418.2C148.8 -408.1 184.7 -403.4 227 -393.2C269.3 -382.9 318 -367.2 325.1 -325.1C332.2 -283 297.7 -214.6 305.7 -176.5C313.7 -138.4 364.2 -130.7 397 -106.4C429.7 -82 444.7 -41 459.7 0L0 0Z" fill="#f5e4c2"></path><path d="M0 -367.8C30.1 -355.2 60.2 -342.7 89.7 -334.6C119.1 -326.5 147.8 -322.7 181.6 -314.5C215.4 -306.4 254.4 -293.7 260 -260C265.7 -226.4 238.1 -171.6 244.6 -141.2C251 -110.8 291.4 -104.6 317.6 -85.1C343.8 -65.6 355.8 -32.8 367.8 0L0 0Z" fill="#f4c78c"></path><path d="M0 -275.8C22.6 -266.4 45.2 -257 67.2 -250.9C89.3 -244.8 110.8 -242 136.2 -235.9C161.6 -229.8 190.8 -220.3 195 -195C199.3 -169.8 178.6 -128.7 183.4 -105.9C188.2 -83.1 218.5 -78.4 238.2 -63.8C257.8 -49.2 266.8 -24.6 275.8 0L0 0Z" fill="#f8a55f"></path><path d="M0 -183.9C15.1 -177.6 30.1 -171.4 44.8 -167.3C59.5 -163.2 73.9 -161.4 90.8 -157.3C107.7 -153.2 127.2 -146.9 130 -130C132.9 -113.2 119.1 -85.8 122.3 -70.6C125.5 -55.4 145.7 -52.3 158.8 -42.5C171.9 -32.8 177.9 -16.4 183.9 0L0 0Z" fill="#fd7d3d"></path><path d="M0 -91.9C7.5 -88.8 15.1 -85.7 22.4 -83.6C29.8 -81.6 36.9 -80.7 45.4 -78.6C53.9 -76.6 63.6 -73.4 65 -65C66.4 -56.6 59.5 -42.9 61.1 -35.3C62.7 -27.7 72.8 -26.1 79.4 -21.3C85.9 -16.4 88.9 -8.2 91.9 0L0 0Z" fill="#ff6432"></path></g></svg>