<svg id="visual" viewBox="0 0 900 600" width="900" height="600" xmlns="http://www.w3.org/2000/svg" xmlns:xlink="http://www.w3.org/1999/xlink" version="1.1"><rect x="0" y="0" width="900" height="600" fill="#f8f1de"></rect><defs><linearGradient id="grad1_0" x1="33.3%" y1="0%" x2="100%" y2="100%"><stop offset="20%" stop-color="#f4d6a6" stop-opacity="1"></stop><stop offset="80%" stop-color="#f4d6a6" stop-opacity="1"></stop></linearGradient></defs><defs><linearGradient id="grad1_1" x1="33.3%" y1="0%" x2="100%" y2="100%"><stop offset="20%" stop-color="#f4d6a6" stop-opacity="1"></stop><stop offset="80%" stop-color="#f5e4c2" stop-opacity="1"></stop></linearGradient></defs><defs><linearGradient id="grad1_2" x1="33.3%" y1="0%" x2="100%" y2="100%"><stop offset="20%" stop-color="#f8f1de" stop-opacity="1"></stop><stop offset="80%" stop-color="#f5e4c2" stop-opacity="1"></stop></linearGradient></defs><defs><linearGradient id="grad2_0" x1="0%" y1="0%" x2="66.7%" y2="100%"><stop offset="20%" stop-color="#f4d6a6" stop-opacity="1"></stop><stop offset="80%" stop-color="#f4d6a6" stop-opacity="1"></stop></linearGradient></defs><defs><linearGradient id="grad2_1" x1="0%" y1="0%" x2="66.7%" y2="100%"><stop offset="20%" stop-color="#f5e4c2" stop-opacity="1"></stop><stop offset="80%" stop-color="#f4d6a6" stop-opacity="1"></stop></linearGradient></defs><defs><linearGradient id="grad2_2" x1="0%" y1="0%" x2="66.7%" y2="100%"><stop offset="20%" stop-color="#f5e4c2" stop-opacity="1"></stop><stop offset="80%" stop-color="#f8f1de" stop-opacity="1"></stop></linearGradient></defs><g transform="translate(900, 0)"><path d="M0 486.7C-28.1 475 -56.2 463.3 -78.3 444.1C-100.4 425 -116.5 398.4 -144 395.6C-171.5 392.9 -210.5 414 -234.5 406.2C-258.5 398.3 -267.7 361.6 -282.8 337.1C-298 312.6 -319.1 300.4 -334.8 280.9C-350.4 261.4 -360.5 234.7 -360.3 208C-360 181.3 -349.4 154.6 -373.1 135.8C-396.7 116.9 -454.7 105.9 -479.4 84.5C-504 63.2 -495.4 31.6 -486.7 0L0 0Z" fill="#f6ebd0"></path><path d="M0 324.5C-18.7 316.7 -37.5 308.9 -52.2 296.1C-66.9 283.3 -77.7 265.6 -96 263.7C-114.3 261.9 -140.3 276 -156.3 270.8C-172.4 265.6 -178.5 241 -188.6 224.7C-198.6 208.4 -212.7 200.2 -223.2 187.3C-233.6 174.3 -240.3 156.5 -240.2 138.7C-240 120.9 -232.9 103.1 -248.7 90.5C-264.5 77.9 -303.1 70.6 -319.6 56.3C-336 42.1 -330.3 21.1 -324.5 0L0 0Z" fill="#f4ddb4"></path><path d="M0 162.2C-9.4 158.3 -18.7 154.4 -26.1 148C-33.5 141.7 -38.8 132.8 -48 131.9C-57.2 131 -70.2 138 -78.2 135.4C-86.2 132.8 -89.2 120.5 -94.3 112.4C-99.3 104.2 -106.4 100.1 -111.6 93.6C-116.8 87.1 -120.2 78.2 -120.1 69.3C-120 60.4 -116.5 51.5 -124.4 45.3C-132.2 39 -151.6 35.3 -159.8 28.2C-168 21.1 -165.1 10.5 -162.2 0L0 0Z" fill="#f4d6a6"></path></g><g transform="translate(0, 600)"><path d="M0 -486.7C23.3 -454.5 46.6 -422.2 74 -419.5C101.3 -416.8 132.7 -443.8 164.2 -451.1C195.6 -458.4 227.1 -446.1 241.5 -418.3C255.9 -390.5 253.1 -347.3 278.3 -331.7C303.6 -316.1 356.8 -328.1 364.6 -306C372.4 -283.9 334.8 -227.7 350.7 -202.5C366.7 -177.3 436.3 -183.2 457.4 -166.5C478.5 -149.8 451.3 -110.5 448.1 -79C444.9 -47.5 465.8 -23.8 486.7 0L0 0Z" fill="#f6ebd0"></path><path d="M0 -324.5C15.5 -303 31.1 -281.5 49.3 -279.7C67.6 -277.9 88.5 -295.8 109.4 -300.7C130.4 -305.6 151.4 -297.4 161 -278.9C170.6 -260.4 168.7 -231.5 185.6 -221.1C202.4 -210.7 237.9 -218.7 243.1 -204C248.3 -189.2 223.2 -151.8 233.8 -135C244.5 -118.2 290.8 -122.1 304.9 -111C319 -99.8 300.8 -73.7 298.7 -52.7C296.6 -31.7 310.6 -15.8 324.5 0L0 0Z" fill="#f4ddb4"></path><path d="M0 -162.2C7.8 -151.5 15.5 -140.7 24.7 -139.8C33.8 -138.9 44.2 -147.9 54.7 -150.4C65.2 -152.8 75.7 -148.7 80.5 -139.4C85.3 -130.2 84.4 -115.8 92.8 -110.6C101.2 -105.4 118.9 -109.4 121.5 -102C124.1 -94.6 111.6 -75.9 116.9 -67.5C122.2 -59.1 145.4 -61.1 152.5 -55.5C159.5 -49.9 150.4 -36.8 149.4 -26.3C148.3 -15.8 155.3 -7.9 162.2 0L0 0Z" fill="#f4d6a6"></path></g></svg>